<mxfile host="app.diagrams.net" modified="2024-02-05T16:13:58.734Z" agent="Mozilla/5.0 (Windows NT 10.0; Win64; x64) AppleWebKit/537.36 (KHTML, like Gecko) Chrome/121.0.0.0 Safari/537.36" version="23.1.1" etag="gK_aGKuJokllC7iGpTH5" type="github">
  <diagram name="StrÃ¡nka-1" id="lovQLJvPsd44s9iB1bvY">
    <mxGraphModel>
      <root>
        <mxCell id="0" />
        <mxCell id="1" parent="0" />
      </root>
    </mxGraphModel>
  </diagram>
</mxfile>
